# File created by Blade
# Date/Time:  Wed Jan 28 16:58:26 2015
#---------------------------------------------------------
:version 1.10
:name HOM
:units
  mass 1.0
  length 1.000000
  angle deg
:documentation
     Acclaim Skeleton File
:root
   axis xyz
   order TX TY TZ RX RY RZ
   position 0.000000 0.000000 0.000000
   orientation 0 0 0
:bonedata
   begin
      id 1
      name Spine_dum
      direction 0.000000 1.000000 0.000000
      length 9.621153
      axis 0.0 0.0 0.0 xyz
   end
   begin
      id 2
      name LeftUpLeg_dum
      direction 1.000000 0.000000 0.000000
      length 2.700595
      axis 0.0 0.0 0.0 xyz
   end
   begin
      id 3
      name RightUpLeg_dum
      direction -1.000000 0.000000 0.000000
      length 2.700595
      axis 0.0 0.0 0.0 xyz
   end
   begin
      id 4
      name Spine
      direction 0.000000 1.000000 0.000000
      length 0.000000
      axis 0.0 0.0 0.0 xyz
      dof rx ry rz
   end
   begin
      id 5
      name Spine_dum1
      direction 0.000000 1.000000 0.000000
      length 12.771951
      axis 0.0 0.0 0.0 xyz
   end
   begin
      id 6
      name Spine_dum2
      direction 0.000000 1.000000 0.000000
      length 7.400569
      axis 0.0 0.0 0.0 xyz
   end
   begin
      id 7
      name Spine_dum3
      direction 0.000000 1.000000 0.000000
      length 7.400569
      axis 0.0 0.0 0.0 xyz
   end
   begin
      id 8
      name Head
      direction 0.000000 1.000000 0.000000
      length 4.527550
      axis 0.0 0.0 0.0 xyz
      dof rx ry rz
   end
   begin
      id 9
      name LeftShoulder
      direction 1.000000 0.000000 0.000000
      length 8.349299
      axis 0.0 0.0 -90.0 xyz
      dof rx ry rz
   end
   begin
      id 10
      name LeftArm
      direction 1.000000 0.000000 0.000000
      length 11.334839
      axis 0.0 0.0 -90.0 xyz
      dof rx ry rz
   end
   begin
      id 11
      name LeftForeArm
      direction 1.000000 0.000000 0.000000
      length 9.694182
      axis 0.0 0.0 -90.0 xyz
      dof ry rz rx
   end
   begin
      id 12
      name LeftHand
      direction 0.000000 0.000000 0.000000
      length 0.000000
      axis 0.0 0.0 -90.0 xyz
      dof rx ry rz
   end
   begin
      id 13
      name LeftHand_dum1
      direction 0.000000 0.000000 0.000000
      length 0.000000
      axis 0.0 0.0 -90.0 xyz
   end
   begin
      id 14
      name LeftHand_dum2
      direction 1.000000 0.000000 0.000000
      length 3.937000
      axis 0.0 0.0 -90.0 xyz
   end
   begin
      id 15
      name LeftHandThumb1
      direction 0.000000 0.000000 1.000000
      length 3.937000
      axis 0.0 0.0 -90.0 xyz
      dof rx rz ry
   end
   begin
      id 16
      name RightShoulder
      direction -1.000000 0.000000 0.000000
      length 8.349299
      axis 0.0 0.0 90.0 xyz
      dof rx ry rz
   end
   begin
      id 17
      name RightArm
      direction -1.000000 0.000000 0.000000
      length 11.334839
      axis 0.0 0.0 90.0 xyz
      dof rx ry rz
   end
   begin
      id 18
      name RightForeArm
      direction -1.000000 0.000000 0.000000
      length 9.694182
      axis 0.0 0.0 90.0 xyz
      dof ry rz rx
   end
   begin
      id 19
      name RightHand
      direction 0.000000 0.000000 0.000000
      length 0.000000
      axis 0.0 0.0 90.0 xyz
      dof rx ry rz
   end
   begin
      id 20
      name RightHand_dum1
      direction 0.000000 0.000000 0.000000
      length 0.000000
      axis 0.0 0.0 90.0 xyz
   end
   begin
      id 21
      name RightHand_dum2
      direction -1.000000 0.000000 0.000000
      length 3.937000
      axis 0.0 0.0 90.0 xyz
   end
   begin
      id 22
      name RightHandThumb1
      direction 0.000000 0.000000 1.000000
      length 3.937000
      axis 0.0 0.0 90.0 xyz
      dof rx rz ry
   end
   begin
      id 23
      name LeftUpLeg
      direction 0.000000 -1.000000 0.000000
      length 16.757176
      axis 0.0 0.0 0.0 xyz
      dof rx ry rz
   end
   begin
      id 24
      name LeftLeg
      direction 0.000000 -1.000000 0.000000
      length 16.759153
      axis 0.0 0.0 0.0 xyz
      dof rx ry rz
   end
   begin
      id 25
      name LeftFoot
      direction 0.000000 -0.258819 0.965926
      length 5.841289
      axis 15.0 0.0 0.0 xyz
      dof rx ry rz
   end
   begin
      id 26
      name LeftToeBase
      direction 0.000000 0.000000 1.000000
      length 2.952750
      axis 0.0 0.0 0.0 xyz
      dof rx ry rz
   end
   begin
      id 27
      name RightUpLeg
      direction 0.000000 -1.000000 0.000000
      length 16.757176
      axis 0.0 0.0 0.0 xyz
      dof rx ry rz
   end
   begin
      id 28
      name RightLeg
      direction 0.000000 -1.000000 0.000000
      length 16.759153
      axis 0.0 0.0 0.0 xyz
      dof rx ry rz
   end
   begin
      id 29
      name RightFoot
      direction 0.000000 -0.258819 0.965926
      length 5.841289
      axis 15.0 0.0 0.0 xyz
      dof rx ry rz
   end
   begin
      id 30
      name RightToeBase
      direction 0.000000 0.000000 1.000000
      length 2.952750
      axis 0.0 0.0 0.0 xyz
      dof rx ry rz
   end
:hierarchy
   begin
      root Spine_dum LeftUpLeg_dum RightUpLeg_dum
      Spine_dum Spine
      LeftUpLeg_dum LeftUpLeg
      RightUpLeg_dum RightUpLeg
      Spine Spine_dum1 Spine_dum2 Spine_dum3
      Spine_dum1 Head
      Spine_dum2 LeftShoulder
      Spine_dum3 RightShoulder
      LeftShoulder LeftArm
      LeftArm LeftForeArm
      LeftForeArm LeftHand
      LeftHand LeftHand_dum1 LeftHand_dum2
      LeftHand_dum1 LeftHandThumb1
      RightShoulder RightArm
      RightArm RightForeArm
      RightForeArm RightHand
      RightHand RightHand_dum1 RightHand_dum2
      RightHand_dum1 RightHandThumb1
      LeftUpLeg LeftLeg
      LeftLeg LeftFoot
      LeftFoot LeftToeBase
      RightUpLeg RightLeg
      RightLeg RightFoot
      RightFoot RightToeBase
   end

# File created by Blade
# Date/Time:  Wed Jan 28 16:58:32 2015
# Frame Rate: 120.000 fps
#------------------------------------------------------
:FULLY-SPECIFIED
:DEGREES
939
root 11.165346 36.908310 -14.915282 200.430450 19.869440 -146.462150
Spine 26.327722 -0.318807 9.977005
Head 29.663645 1.945395 43.921052
LeftShoulder -10.265773 4.653632 26.790828
LeftArm 33.249122 -50.719075 -73.606315
LeftForeArm -11.771254 -0.000000 109.884734
LeftHand -18.117639 -0.000000 27.426846
LeftHandThumb1 -26.253704 0.000000 33.147579
RightShoulder -22.240400 -8.175652 1.308889
RightArm 13.565938 -23.711463 70.357706
RightForeArm -10.578036 -0.000000 31.244689
RightHand -14.544837 0.000000 -3.938013
RightHandThumb1 -24.326973 -0.000000 -32.862282
LeftUpLeg -21.146970 49.365397 11.268742
LeftLeg 10.708506 -0.000000 -0.000000
LeftFoot -17.083757 23.704447 -9.009458
LeftToeBase 11.082978 -0.000000 -0.000000
RightUpLeg -24.405576 -25.268250 0.529892
RightLeg 102.324778 -0.000000 -0.000000
RightFoot 3.533182 -8.682940 23.161322
RightToeBase -1.780993 -0.000000 0.000000
940
root 11.182065 36.907966 -14.931791 200.450755 19.989402 -146.412961
Spine 26.305088 -0.101814 9.732832
Head 29.763707 1.932211 44.083094
LeftShoulder -10.276611 4.639757 26.888252
LeftArm 33.357077 -50.813060 -73.604824
LeftForeArm -11.741110 -0.000000 110.101370
LeftHand -18.216123 -0.000000 27.330547
LeftHandThumb1 -26.253704 0.000000 33.147579
RightShoulder -22.257605 -8.151583 1.297518
RightArm 13.691941 -23.799886 70.284881
RightForeArm -10.660258 -0.000000 31.368403
RightHand -14.557897 -0.000000 -3.890837
RightHandThumb1 -24.326973 -0.000000 -32.862282
LeftUpLeg -20.957355 49.286398 11.452690
LeftLeg 10.687269 -0.000000 -0.000000
LeftFoot -17.125690 23.887787 -9.035937
LeftToeBase 11.130794 -0.000000 -0.000000
RightUpLeg -23.317828 -24.567980 1.004774
RightLeg 100.881784 -0.000000 -0.000000
RightFoot 2.898757 -9.306064 22.800429
RightToeBase -1.620305 -0.000000 0.000000
941
root 11.201201 36.907769 -14.949897 200.442061 20.095256 -146.346937
Spine 26.338291 0.060506 9.488295
Head 29.856129 1.952199 44.247917
LeftShoulder -10.329727 4.614820 26.995041
LeftArm 33.389419 -50.910579 -73.527235
LeftForeArm -11.740442 0.000000 110.311019
LeftHand -18.282628 -0.000000 27.166694
LeftHandThumb1 -26.253704 0.000000 33.147579
RightShoulder -22.214318 -8.068294 1.226091
RightArm 13.701566 -23.774646 70.316247
RightForeArm -10.796057 -0.000000 31.521117
RightHand -14.523645 0.000000 -3.744715
RightHandThumb1 -24.326973 -0.000000 -32.862282
LeftUpLeg -20.684513 49.117254 11.729897
LeftLeg 10.660440 -0.000000 -0.000000
LeftFoot -17.191745 24.149783 -9.097400
LeftToeBase 11.174016 -0.000000 -0.000000
RightUpLeg -22.189498 -23.784434 1.533035
RightLeg 99.425171 -0.000000 -0.000000
RightFoot 2.121015 -10.080062 22.408629
RightToeBase -1.397869 -0.000000 0.000000
942
root 11.220847 36.908043 -14.968528 200.387874 20.239295 -146.254141
Spine 26.461710 0.219892 9.282105
Head 29.941071 2.041423 44.326240
LeftShoulder -10.376433 4.596642 27.065077
LeftArm 33.456970 -51.065672 -73.479744
LeftForeArm -11.793610 0.000000 110.499399
LeftHand -18.367764 -0.000000 26.977995
LeftHandThumb1 -26.253704 0.000000 33.147579
RightShoulder -22.157137 -8.020443 1.134406
RightArm 13.788693 -23.741424 70.318895
RightForeArm -10.764968 -0.000000 31.709341
RightHand -14.616373 -0.000000 -3.882290
RightHandThumb1 -24.326973 -0.000000 -32.862282
LeftUpLeg -20.431555 49.176762 12.010419
LeftLeg 10.743518 -0.000000 -0.000000
LeftFoot -17.278133 24.220110 -9.131377
LeftToeBase 11.234076 -0.000000 -0.000000
RightUpLeg -21.019578 -22.917923 2.083625
RightLeg 97.949155 -0.000000 -0.000000
RightFoot 1.325717 -11.008049 21.842877
RightToeBase -1.239890 -0.000000 0.000000
943
root 11.249115 36.910597 -14.984671 200.387824 20.373642 -146.135193
Spine 26.497687 0.441957 9.080874
Head 30.033808 2.057738 44.496389
LeftShoulder -10.360965 4.509636 27.180292
LeftArm 33.373026 -51.209561 -73.262557
LeftForeArm -11.919306 -0.000000 110.695394
LeftHand -18.487205 -0.000000 26.843675
LeftHandThumb1 -26.253704 0.000000 33.147579
RightShoulder -22.197584 -7.985734 1.103131
RightArm 13.896308 -23.682132 70.300858
RightForeArm -10.645222 -0.000000 31.819411
RightHand -14.520733 -0.000000 -3.961514
RightHandThumb1 -24.326973 -0.000000 -32.862282
LeftUpLeg -20.081905 49.014506 12.398337
LeftLeg 10.691517 -0.000000 -0.000000
LeftFoot -17.344703 24.475055 -9.220991
LeftToeBase 11.287193 -0.000000 -0.000000
RightUpLeg -19.909342 -21.957611 2.766648
RightLeg 96.439991 -0.000000 -0.000000
RightFoot 0.571517 -12.104565 21.112292
RightToeBase -1.074552 -0.000000 0.000000
944
root 11.270387 36.914473 -14.996371 200.393755 20.570971 -146.013636
Spine 26.565974 0.712436 8.825838
Head 30.097711 2.082158 44.728484
LeftShoulder -10.360392 4.473981 27.330906
LeftArm 33.376454 -51.385623 -73.144014
LeftForeArm -12.112451 -0.000000 110.895435
LeftHand -18.576754 -0.000000 26.643517
LeftHandThumb1 -26.253704 0.000000 33.147579
RightShoulder -22.179780 -7.861351 1.072698
RightArm 13.921854 -23.598375 70.301556
RightForeArm -10.423990 -0.000000 31.945322
RightHand -14.636079 -0.000000 -3.996874
RightHandThumb1 -24.326973 -0.000000 -32.862282
LeftUpLeg -19.768246 49.041774 12.702329
LeftLeg 10.623776 -0.000000 -0.000000
LeftFoot -17.362447 24.603244 -9.280181
LeftToeBase 11.335523 -0.000000 -0.000000
RightUpLeg -18.849478 -20.861833 3.477116
RightLeg 94.922270 -0.000000 -0.000000
RightFoot -0.111700 -13.293208 20.414618
RightToeBase -0.827147 -0.000000 0.000000
945
root 11.299600 36.918872 -15.008382 200.395798 20.735393 -145.882606
Spine 26.613511 0.900863 8.562726
Head 30.220460 2.141171 44.948498
LeftShoulder -10.405640 4.398522 27.467523
LeftArm 33.309631 -51.538774 -72.936205
LeftForeArm -12.243023 -0.000000 111.056434
LeftHand -18.700008 -0.000000 26.423016
LeftHandThumb1 -26.253704 0.000000 33.147579
RightShoulder -22.192318 -7.922534 1.107333
RightArm 14.186480 -23.506596 70.216609
RightForeArm -10.105191 -0.000000 32.048425
RightHand -14.663003 -0.000000 -4.172640
RightHandThumb1 -24.326973 -0.000000 -32.862282
LeftUpLeg -19.420153 49.008591 13.061119
LeftLeg 10.534280 -0.000000 -0.000000
LeftFoot -17.412282 24.768023 -9.365118
LeftToeBase 11.433946 -0.000000 -0.000000
RightUpLeg -17.771237 -19.774316 4.251103
RightLeg 93.369702 -0.000000 -0.000000
RightFoot -0.535758 -14.624050 19.404633
RightToeBase -0.921895 -0.000000 0.000000
946
root 11.332417 36.920705 -15.021459 200.407419 20.875387 -145.791903
Spine 26.595119 1.089341 8.234728
Head 30.339725 2.175752 45.236758
LeftShoulder -10.442759 4.337816 27.649583
LeftArm 33.246977 -51.653165 -72.678777
LeftForeArm -12.345342 -0.000000 111.184908
LeftHand -18.848565 -0.000000 26.347895
LeftHandThumb1 -26.253704 0.000000 33.147579
RightShoulder -22.150479 -7.729984 1.075682
RightArm 14.037228 -23.412680 70.316436
RightForeArm -9.691620 0.000000 32.170089
RightHand -14.761172 -0.000000 -4.495162
RightHandThumb1 -24.326973 -0.000000 -32.862282
LeftUpLeg -19.168610 49.123010 13.288733
LeftLeg 10.427226 -0.000000 -0.000000
LeftFoot -17.411988 24.801473 -9.352124
LeftToeBase 11.497168 -0.000000 -0.000000
RightUpLeg -16.710855 -18.728880 5.018403
RightLeg 91.826885 -0.000000 -0.000000
RightFoot -0.957949 -15.994994 18.678736
RightToeBase -0.768877 -0.000000 0.000000
947
root 11.367154 36.919559 -15.034206 200.397753 20.955333 -145.767942
Spine 26.546443 1.209822 7.831311
Head 30.449446 2.120295 45.546905
LeftShoulder -10.498765 4.332177 27.855750
LeftArm 33.397342 -51.778293 -72.619875
LeftForeArm -12.425929 -0.000000 111.261259
LeftHand -18.975073 -0.000000 26.142940
LeftHandThumb1 -26.253704 0.000000 33.147579
RightShoulder -22.237293 -7.866035 1.209976
RightArm 14.345944 -23.284367 70.223903
RightForeArm -9.340871 -0.000000 32.235096
RightHand -14.701920 0.000000 -4.582171
RightHandThumb1 -24.326973 -0.000000 -32.862282
LeftUpLeg -18.991241 49.272901 13.409672
LeftLeg 10.325129 -0.000000 -0.000000
LeftFoot -17.384214 24.734680 -9.272982
LeftToeBase 11.550111 -0.000000 -0.000000
RightUpLeg -15.673424 -17.750739 5.756979
RightLeg 90.319023 -0.000000 -0.000000
RightFoot -1.370731 -17.359008 18.390461
RightToeBase -0.240783 -0.000000 0.000000
948
root 11.393231 36.915998 -15.041383 200.405621 21.033379 -145.787761
Spine 26.476077 1.286869 7.394709
Head 30.558777 2.107632 45.810835
LeftShoulder -10.557949 4.223110 28.049110
LeftArm 33.324897 -51.887111 -72.324111
LeftForeArm -12.481849 0.000000 111.316715
LeftHand -19.113477 -0.000000 25.991260
LeftHandThumb1 -26.253704 0.000000 33.147579
RightShoulder -22.145885 -7.684940 1.183751
RightArm 14.105361 -23.044804 70.412170
RightForeArm -9.025145 -0.000000 32.417072
RightHand -14.727432 0.000000 -4.737543
RightHandThumb1 -24.326973 -0.000000 -32.862282
LeftUpLeg -18.919303 49.482096 13.381318
LeftLeg 10.195582 -0.000000 -0.000000
LeftFoot -17.324436 24.668525 -9.156530
LeftToeBase 11.563764 -0.000000 -0.000000
RightUpLeg -14.713819 -16.776758 6.463034
RightLeg 88.858182 -0.000000 -0.000000
RightFoot -1.564917 -18.692989 18.062447
RightToeBase 0.215192 -0.000000 -0.000000
949
root 11.407746 36.904880 -15.050786 200.408325 21.093178 -145.923240
Spine 26.336675 1.372950 6.897996
Head 30.683818 2.038415 46.048247
LeftShoulder -10.586165 4.153387 28.215923
LeftArm 33.460606 -51.952448 -72.190394
LeftForeArm -12.440968 -0.000000 111.317371
LeftHand -19.282737 -0.000000 25.865208
LeftHandThumb1 -26.253704 0.000000 33.147579
RightShoulder -22.183082 -7.719932 1.235634
RightArm 14.150048 -22.804728 70.490063
RightForeArm -8.557911 -0.000000 32.517980
RightHand -14.716178 0.000000 -5.041040
RightHandThumb1 -24.326973 -0.000000 -32.862282
LeftUpLeg -18.910276 49.640263 13.159823
LeftLeg 10.009424 -0.000000 -0.000000
LeftFoot -17.305765 24.628103 -9.046930
LeftToeBase 11.673363 -0.000000 -0.000000
RightUpLeg -13.829568 -15.870047 7.047355
RightLeg 87.483330 -0.000000 -0.000000
RightFoot -1.667517 -19.870451 17.861961
RightToeBase 0.717696 -0.000000 -0.000000
950
root 11.419348 36.892393 -15.055999 200.427242 21.050475 -146.130109
Spine 26.115550 1.363621 6.363535
Head 30.831036 1.951702 46.294188
LeftShoulder -10.610049 4.073205 28.398980
LeftArm 33.624084 -51.955816 -72.075761
LeftForeArm -12.393313 -0.000000 111.279320
LeftHand -19.370330 -0.000000 25.734373
LeftHandThumb1 -26.253704 0.000000 33.147579
RightShoulder -22.193919 -7.736231 1.289744
RightArm 14.090855 -22.581250 70.584690
RightForeArm -8.050766 0.000000 32.624998
RightHand -14.684828 -0.000000 -5.186422
RightHandThumb1 -24.326973 -0.000000 -32.862282
LeftUpLeg -19.005265 49.614842 12.842195
LeftLeg 9.824613 -0.000000 -0.000000
LeftFoot -17.318138 24.631301 -8.986733
LeftToeBase 11.816993 -0.000000 -0.000000
RightUpLeg -13.024895 -15.060634 7.635188
RightLeg 86.173393 -0.000000 -0.000000
RightFoot -1.754758 -20.862061 17.872579
RightToeBase 1.213117 -0.000000 -0.000000
